# xmcd CD database file
#
# Track frame offsets:
#	150
#	26494
#	46917
#	67987
#	103729
#	125378
#	147870
#	160505
#	187021
#	216789
#	240247
#	266148
#	290094
#
# Disc length: 4048 seconds
#
# Revision: 0
# Processed by: cddbd v1.5.2PL0 Copyright (c) Steve Scherf et al.
# Submitted via: CDex 1.51
#
DISCID=b90fce0d
DTITLE=The Roy Hargrove Quintet - Earfood
DYEAR=2008
DGENRE=Jazz
TTITLE0=I'm not so sure
TTITLE1=Brown
TTITLE2=Strasbourg - St. Denis
TTITLE3=Starmaker
TTITLE4=Joy is sorrow unmasked
TTITLE5=The stinger
TTITLE6=Rouge
TTITLE7=Mr. Clean
TTITLE8=Style
TTITLE9=Divine
TTITLE10=To wisdom the prize
TTITLE11=Speak low
TTITLE12=Bring it on home to me
EXTD=YEAR: 2008
EXTT0=
EXTT1=
EXTT2=
EXTT3=
EXTT4=
EXTT5=
EXTT6=
EXTT7=
EXTT8=
EXTT9=
EXTT10=
EXTT11=
EXTT12=
PLAYORDER=
